<svg xmlns="http://www.w3.org/2000/svg"
     xmlns:xlink="http://www.w3.org/1999/xlink"
     viewBox="0 0 68 68"
     class="design-iconfont">
    <defs>
        <path
            id="dxx7j78nc__ki4ina4sja"
            d="M29.5 0A29.5 29.5 0 1 0 29.5 59A29.5 29.5 0 1 0 29.5 0Z"/>
    </defs>
    <g
        transform="translate(4.5 4.5)"
        fill="none"
        fill-rule="evenodd">
        <mask
            id="dxx7j78nc__bskdxctonb"
            fill="#fff">
            <use xlink:href="#dxx7j78nc__ki4ina4sja"/>
        </mask>
        <path
            stroke-opacity=".384151"
            stroke="#FFF"
            stroke-width="3"
            d="M29.5 -1.5A31 31 0 1 0 29.5 60.5A31 31 0 1 0 29.5 -1.5Z"/>
        <g
            mask="url(#dxx7j78nc__bskdxctonb)"
            fill-rule="nonzero">
            <path
                d="M47.7207141,43.5427182 L47.5269132,43.4880897 C44.7168001,42.7323963 43.7666554,42.0072688 42.5134529,41.5318713 C38.0735914,39.8390399 36.9198907,38.6203054 36.624637,38.045406 C36.6148819,38.0252455 36.6044765,38.0024837 36.5947214,37.9810225 L36.5583024,32.8251381 L26.0306213,32.7054758 L15.5029401,32.8251381 L15.4665211,37.9810225 C15.4567661,38.0024837 15.4463606,38.0258959 15.4366056,38.045406 C15.1413518,38.6203054 13.9876512,39.8390399 9.54778959,41.5318713 C8.29588779,42.0072688 7.34444243,42.7323963 4.53432936,43.4880897 L4.34052846,43.5427182 C1.78274677,44.3901094 0.0599998322,46.7625446 0.0599998322,49.4412892 L0.0599998322,54.6225368 L52.0012427,54.6225368 L52.0012427,49.4419396 C52.0012427,46.7625446 50.2784958,44.3901094 47.7207141,43.5427182 Z"
                fill="#434A54"
                transform="translate(3.5 5.5)"/>
            <path
                fill="#CCD1D9"
                d="M26.0241179 39.898871L19.6182827 45.2966814 26.1171163 54.6225368 32.0703158 44.8564021z"
                transform="translate(3.5 5.5)"/>
            <path
                fill="#E6E9ED"
                d="M15.4782272 34.2591347L20.5996437 46.3996556 26.1171163 42.286264 31.8101804 46.5303737 36.5680575 34.1427241z"
                transform="translate(3.5 5.5)"/>
            <path
                d="M40.6398275,22.8873141 C40.6398275,32.3790059 31.5910163,41.1137035 26.0306213,41.1137035 C20.4702263,41.1137035 11.4214151,32.3783555 11.4214151,22.8873141 C11.4214151,13.3943216 17.9638213,7.13091061 26.0306213,7.13091061 C34.0980715,7.13156095 40.6398275,13.3943216 40.6398275,22.8873141 Z"
                fill="#EAC6BB"
                transform="translate(3.5 5.5)"/>
            <path
                d="M26.1171163,54.6225368 L15.4782272,34.2591347 L12.5224383,41.5682902 L15.980939,44.2229724 L15.3605159,46.7722996 L26.1171163,54.6225368 Z M26.1171163,54.6225368 L36.5680575,34.1427241 L39.6883821,41.5682902 L36.2298814,44.2229724 L36.8503045,46.7722996 L26.1171163,54.6225368 Z"
                fill="#656D78"
                transform="translate(3.5 5.5)"/>
            <path
                d="M37.9311672,3.68606708 C34.6319995,1.5009294 30.4041483,0.297152661 26.0306213,0.297152661 C21.6570942,0.297152661 17.4298934,1.5009294 14.1300753,3.68606708 C10.837411,5.86600205 8.95077876,8.73594626 8.95077876,11.5590661 C8.95077876,14.3327602 10.9531713,16.8690807 14.5872634,18.6991335 C17.7687198,20.3022182 21.9380405,21.2211466 26.0299709,21.2211466 C30.1219014,21.2211466 34.2912221,20.3028685 37.4726785,18.6991335 C41.1067706,16.8690807 43.1098136,14.3321099 43.1098136,11.5590661 C43.1104638,8.73594626 41.2231812,5.86665238 37.9311672,3.68606708 L37.9311672,3.68606708 Z"
                fill="#DA4453"
                transform="translate(3.5 5.5)"/>
            <path
                d="M39.7111439,17.8224771 L12.5224383,17.8224771 C12.1745072,17.8224771 11.8460862,17.6631442 11.6308241,17.3900019 L11.6308241,17.390002 C11.416323,17.1171128 11.3393313,16.760696 11.4220654,16.4235988 C11.4884,16.1452539 13.2156993,9.62625984 26.0312716,9.62625984 C38.8234318,9.62625984 40.7302246,16.116639 40.8063142,16.3936833 C40.8973616,16.7338103 40.8264747,17.0986503 40.6105622,17.3782959 C40.3959505,17.6585918 40.0629772,17.8224771 39.711144,17.8224771 L39.7111439,17.8224771 Z"
                fill="#ED5564"
                transform="translate(3.5 5.5)"/>
            <path
                d="M40.7855033,16.3325514 C40.6313731,15.8701606 40.1988979,15.5566974 39.7111439,15.5566974 L12.5224383,15.5566974 C12.0353347,15.5566974 11.6009085,15.8701606 11.448079,16.3325514 C11.2919977,16.7949421 11.4513307,17.3041572 11.8428345,17.5961593 L16.3737435,20.9948288 C16.5707961,21.1424556 16.8081697,21.2217969 17.0533473,21.2217969 L35.1789343,21.2217969 C35.4241119,21.2217969 35.6627862,21.1424556 35.8585381,20.9948288 L40.3913981,17.5961593 C40.7809509,17.3041572 40.9396335,16.7949421 40.7855033,16.3325514 L40.7855033,16.3325514 Z"
                fill="#656D78"
                transform="translate(3.5 5.5)"/>
            <path
                d="M28.3815953,6.49487947 C28.3815953,7.74483025 27.3670671,8.75935845 26.1171163,8.75935845 C24.8652145,8.75935845 23.8506863,7.74483025 23.8506863,6.49487947 C23.8506863,5.24297767 24.8652145,4.22844947 26.1171163,4.22844947 C27.3670671,4.22844947 28.3815953,5.24297767 28.3815953,6.49487947 Z"
                fill="#FFCE54"
                transform="translate(3.5 5.5)"/>
            <path
                d="M27.2493558,46.4295712 C27.2493558,47.0564976 26.7420917,47.5637617 26.1171163,47.5637617 C25.4901899,47.5637617 24.9829258,47.0564976 24.9829258,46.4295712 C24.9829258,45.8045958 25.4901899,45.2973311 26.1171163,45.2973311 C26.7420917,45.2966814 27.2493558,45.8045958 27.2493558,46.4295712 Z"
                fill="#656D78"
                transform="translate(3.5 5.5)"/>
            <path
                d="M16.9557965,31.4392666 C16.3906523,32.5383388 15.9978478,33.6393621 15.9978478,34.5778007 C15.9978478,37.9198907 23.9722996,43.3229037 26.0312716,43.358022 C28.0902436,43.3229037 36.0646954,37.9198907 36.0646954,34.5778007 C36.0646954,33.6179009 35.6536815,32.4902138 35.0664257,31.3683797 C33.6025135,28.5641197 18.414506,28.6102937 16.9557965,31.4392666 Z"
                fill="#E9573F"
                transform="translate(3.5 5.5)"/>
            <path
                d="M34.3133336,26.9246161 C35.9079638,26.4355615 37.3309047,27.579507 35.4969499,28.5693224 C31.7965232,30.5652115 29.011123,23.0583531 25.8777917,26.9811955 C22.7444604,30.9033876 27.7377601,34.8574463 32.2075372,34.4464323 C44.3695193,33.3291506 39.225341,24.974901 36.920541,25.0464382 C35.1607248,25.0991156 34.3133336,26.9246161 34.3133336,26.9246161 L34.3133336,26.9246161 Z"
                fill="#FC6E51"
                transform="translate(3.5 5.5)"/>
            <path
                d="M17.7479089,26.9246161 C16.1532787,26.4355615 14.7309882,27.579507 16.5642927,28.5693224 C20.2647193,30.5652115 23.0501195,23.0583531 26.1834508,26.9811955 C29.3167822,30.9033876 24.3234825,34.8574463 19.8537053,34.4464323 C7.69172324,33.3291506 12.8359015,24.974901 15.1420022,25.0464382 C16.9024688,25.0991156 17.7479089,26.9246161 17.7479089,26.9246161 L17.7479089,26.9246161 Z"
                fill="#FC6E51"
                transform="translate(3.5 5.5)"/>
        </g>
    </g>
</svg>
