<svg xmlns="http://www.w3.org/2000/svg"
     xmlns:xlink="http://www.w3.org/1999/xlink"
     viewBox="0 0 24 25"
     class="design-iconfont">
    <defs>
        <path
            d="M25,108.5 L350,108.5 C355.522847,108.5 360,112.977153 360,118.5 L360,461.5 C360,467.022847 355.522847,471.5 350,471.5 L25,471.5 C19.4771525,471.5 15,467.022847 15,461.5 L15,118.5 C15,112.977153 19.4771525,108.5 25,108.5 Z"
            id="vwh0vabc2__jv86wk5ova"/>
    </defs>
    <g
        transform="translate(-321 -353)"
        fill="none"
        fill-rule="evenodd">
        <path
            fill="#F4F4F4"
            d="M0 0H375V851H0z"/>
        <mask
            id="vwh0vabc2__w2jexjrljb"
            fill="#fff">
            <use xlink:href="#vwh0vabc2__jv86wk5ova"/>
        </mask>
        <use
            fill="#FFF"
            xlink:href="#vwh0vabc2__jv86wk5ova"/>
        <g mask="url(#vwh0vabc2__w2jexjrljb)">
            <path
                d="M16.7912073,15.6109851 C17.4156456,14.5280258 17.069772,13.6962697 15.9639431,12.8640469 C14.6639993,11.8856872 13.3935793,11.2276041 12.4801043,12.281758 C12.4801043,12.281758 11.5106915,13.4317932 8.65792265,10.7405991 C5.34062321,7.58935738 6.73286613,6.47173066 6.73286613,6.47173066 C7.8865962,5.3158522 7.15320476,4.45355447 6.18559041,3.14759999 C5.21805098,1.84166418 4.24065783,1.42832506 2.83749337,2.55149632 C0.133579611,4.71597749 3.94626342,9.79823223 5.87396134,11.7744043 L5.8738864,11.7745537 C5.8738864,11.7745537 8.80526035,14.7961614 10.6499134,15.8020572 L11.6367294,16.3519376 C13.0520893,17.0757338 14.6418752,17.4070622 15.7611172,16.7349591 C15.7611172,16.7349965 16.3006373,16.4584414 16.7912073,15.6109851 Z"
                fill="#EF4F3F"
                transform="translate(323 356.166667)"
                fill-rule="nonzero"/>
            <path
                d="M10.5552255,3.83275802 C11.8445008,3.96587712 13.0014459,4.5604865 13.8179073,5.51746997 C14.6257065,6.45882659 14.9959538,7.64272219 14.8750668,8.84350375 C14.8435501,9.1367563 15.0307218,9.40071547 15.3100448,9.48081007 C15.3464783,9.49125719 15.3707673,9.49822194 15.4106831,9.49652458 C15.7438514,9.52634389 16.0338846,9.2940767 16.0637039,8.96090834 C16.2265547,7.4304408 15.7507524,5.927131 14.7245278,4.73913943 C13.7104477,3.55463023 12.2707848,2.80009464 10.688257,2.63545886 C10.3550886,2.60563954 10.0650555,2.83790673 10.0352362,3.17107509 C9.99327236,3.50076109 10.2220572,3.80293872 10.5552255,3.83275802 Z"
                fill="#EF4F3F"
                transform="translate(323 356.166667)"/>
            <path
                d="M9.32404299,6.47633418 C9.42111117,6.59616929 9.56854231,6.67787358 9.72124083,6.69537312 C10.3719507,6.76367387 10.9564955,7.06271973 11.3690572,7.5490249 C11.7729568,8.0197032 11.9580805,8.61165101 11.8915648,9.2103006 C11.8600481,9.50355316 12.0472197,9.76751232 12.3143983,9.84412455 C12.3508317,9.85457167 12.3872652,9.86501879 12.4150365,9.85983906 C12.7482049,9.88965837 13.0382381,9.65739118 13.0680574,9.32422282 C13.1643924,8.39240487 12.8737138,7.48104288 12.2513888,6.76372961 C11.6412083,6.04989872 10.7739458,5.59092662 9.81435647,5.49977132 C9.48118811,5.46995201 9.19115496,5.70221919 9.16133564,6.03538755 C9.18026954,6.19853319 9.2269748,6.35649909 9.32404299,6.47633418 Z"
                fill="#EF4F3F"
                transform="translate(323 356.166667)"/>
        </g>
        <g mask="url(#vwh0vabc2__w2jexjrljb)">
            <path
                d="M16.7912073,15.6109851 C17.4156456,14.5280258 17.069772,13.6962697 15.9639431,12.8640469 C14.6639993,11.8856872 13.3935793,11.2276041 12.4801043,12.281758 C12.4801043,12.281758 11.5106915,13.4317932 8.65792265,10.7405991 C5.34062321,7.58935738 6.73286613,6.47173066 6.73286613,6.47173066 C7.8865962,5.3158522 7.15320476,4.45355447 6.18559041,3.14759999 C5.21805098,1.84166418 4.24065783,1.42832506 2.83749337,2.55149632 C0.133579611,4.71597749 3.94626342,9.79823223 5.87396134,11.7744043 L5.8738864,11.7745537 C5.8738864,11.7745537 8.80526035,14.7961614 10.6499134,15.8020572 L11.6367294,16.3519376 C13.0520893,17.0757338 14.6418752,17.4070622 15.7611172,16.7349591 C15.7611172,16.7349965 16.3006373,16.4584414 16.7912073,15.6109851 Z"
                fill="#EF4F3F"
                transform="translate(323 356.166667)"
                fill-rule="nonzero"/>
            <path
                d="M10.5552255,3.83275802 C11.8445008,3.96587712 13.0014459,4.5604865 13.8179073,5.51746997 C14.6257065,6.45882659 14.9959538,7.64272219 14.8750668,8.84350375 C14.8435501,9.1367563 15.0307218,9.40071547 15.3100448,9.48081007 C15.3464783,9.49125719 15.3707673,9.49822194 15.4106831,9.49652458 C15.7438514,9.52634389 16.0338846,9.2940767 16.0637039,8.96090834 C16.2265547,7.4304408 15.7507524,5.927131 14.7245278,4.73913943 C13.7104477,3.55463023 12.2707848,2.80009464 10.688257,2.63545886 C10.3550886,2.60563954 10.0650555,2.83790673 10.0352362,3.17107509 C9.99327236,3.50076109 10.2220572,3.80293872 10.5552255,3.83275802 Z"
                fill="#EF4F3F"
                transform="translate(323 356.166667)"/>
            <path
                d="M9.32404299,6.47633418 C9.42111117,6.59616929 9.56854231,6.67787358 9.72124083,6.69537312 C10.3719507,6.76367387 10.9564955,7.06271973 11.3690572,7.5490249 C11.7729568,8.0197032 11.9580805,8.61165101 11.8915648,9.2103006 C11.8600481,9.50355316 12.0472197,9.76751232 12.3143983,9.84412455 C12.3508317,9.85457167 12.3872652,9.86501879 12.4150365,9.85983906 C12.7482049,9.88965837 13.0382381,9.65739118 13.0680574,9.32422282 C13.1643924,8.39240487 12.8737138,7.48104288 12.2513888,6.76372961 C11.6412083,6.04989872 10.7739458,5.59092662 9.81435647,5.49977132 C9.48118811,5.46995201 9.19115496,5.70221919 9.16133564,6.03538755 C9.18026954,6.19853319 9.2269748,6.35649909 9.32404299,6.47633418 Z"
                fill="#EF4F3F"
                transform="translate(323 356.166667)"/>
        </g>
    </g>
</svg>
