<svg xmlns="http://www.w3.org/2000/svg"
     viewBox="0 0 22 23"
     class="design-iconfont">
    <g
        fill-rule="nonzero"
        fill="none">
        <path
            d="M18.7014056,15.7786826 C18.8919541,15.7732383 19.0825025,15.811348 19.2648846,15.9311213 C18.6034093,15.5064705 18.16787,14.7660537 18.16787,13.9194742 L18.16787,9.19659516 C18.16787,5.73678 15.6662413,2.84861014 12.3234773,2.13813668 L12.3234773,1.96936521 C12.3234773,1.08739817 11.6102817,0.376924714 10.7310368,0.376924714 C9.85179187,0.376924714 9.13859629,1.09012029 9.13859629,1.96936521 L9.13859629,2.13813668 C5.79583231,2.84861014 3.29420356,5.73405788 3.29420356,9.19659516 L3.29420356,13.9194742 C3.29420356,14.7660537 2.85594216,15.5064705 2.197189,15.9311213 C2.38229319,15.811348 2.57011951,15.7705162 2.76066794,15.7786826 C2.17541203,15.7814047 1.70176306,16.2523315 1.70176306,16.8403096 C1.70176306,17.4282876 2.17541203,17.9019366 2.76339006,17.9019366 L18.6959614,17.9019366 C19.2839394,17.9019366 19.7576001,17.4282876 19.7576001,16.8403096 C19.7603105,16.2577758 19.2866616,15.7814047 18.7014056,15.7786826 L18.7014056,15.7786826 Z"
            fill="#818181"
            transform="translate(0 .967041)"/>
        <path
            d="M10.7337589,21.6230753 C12.2009819,21.6230753 13.3905485,20.4335086 13.3905485,18.9662857 L8.0769693,18.9662857 C8.0769693,20.4335086 9.26381384,21.6230753 10.7337589,21.6230753 Z"
            fill="#C2C1C1"
            transform="translate(0 .967041)"/>
    </g>
</svg>
