<svg xmlns="http://www.w3.org/2000/svg" viewBox="0 0 23 23" class="design-iconfont">
  <g fill="none" fill-rule="evenodd">
    <path d="M6.07462061,4.46594238 C6.07462061,5.29436951 6.74619348,5.96594238 7.57462061,5.96594238 L14.5746206,5.96594238 C15.4030477,5.96594238 16.0746206,5.29436951 16.0746206,4.46594238 L16.0746206,1.36169403 L17.8566894,1.36169403 C19.5135437,1.36169403 20.8566894,2.70483978 20.8566894,4.36169403 L20.8566894,18.0750732 C20.8566894,19.7319275 19.5135437,21.0750732 17.8566894,21.0750732 L4.14331057,21.0750732 C2.48645632,21.0750732 1.14331057,19.7319275 1.14331057,18.0750732 L1.14331057,4.36169403 C1.14331057,2.70483978 2.48645632,1.36169403 4.14331057,1.36169403 L6.07462061,1.36169403 Z" fill="#818181" transform="translate(.786621 .967041)"/>
    <path fill="#C2C1C1" d="M7.28897608 0.54211426H14.86026514V4.89001434H7.28897608z" transform="translate(.786621 .967041)"/>
    <path stroke="#FFF" stroke-width="1.5" stroke-linecap="round" d="M6.57462061 10.2767334L15.5746206 10.2767334" transform="translate(.786621 .967041)"/>
    <path stroke="#FFF" stroke-width="1.5" stroke-linecap="round" d="M6.57462061 14.9119876L15.5746206 14.9119876" transform="translate(.786621 .967041)"/>
  </g>
</svg>
