<svg xmlns="http://www.w3.org/2000/svg"
     viewBox="0 0 17 16"
     class="design-iconfont">
    <path
        d="M5.73906379,4.61265396 L10.4609953,9.33299825 C10.4959138,9.36791674 10.5038498,9.42029447 10.4784545,9.46314897 C10.2229147,9.87106036 8.93569237,12.032832 8.59126913,14.889799 C8.58809473,14.913607 8.56269946,14.9263047 8.54206581,14.9151943 L6.93898991,13.9485871 C6.92470507,13.9390639 6.91835626,13.9216046 6.92629228,13.9057326 C7.07707665,13.589879 8.51984496,10.5678429 8.372235,10.7154528 C8.21668902,10.8709988 7.21833779,11.931251 6.47076477,13.0153112 L6.04063252,13.6073383 C6.04063252,13.6073383 4.35343481,12.4724875 3.83283194,11.7661818 C3.82489592,11.7550714 3.82330872,11.7455481 3.83283194,11.7360249 C4.17566798,11.3201775 5.95968512,9.00127265 5.95968512,9.00127265 L2.92653853,10.8202083 C2.9122537,10.8281443 2.89638166,10.8265571 2.88527123,10.8138595 C2.73766127,10.6503775 1.72502521,9.53139874 1.4329797,9.00603426 C1.42663088,8.99492383 1.42663088,8.98540061 1.43774131,8.97587738 C1.72661241,8.74255842 3.35984519,7.35851664 3.35984519,7.35851664 L1.05998679,8.17275223 C1.04411475,8.17751384 1.02665551,8.17116502 1.01871949,8.15688019 L0.167978215,6.5601531 C0.156867788,6.54110665 0.164803807,6.51729859 0.187024661,6.51253698 C0.591761647,6.43158959 3.96933147,5.73004548 5.60891307,4.59836912 C5.65018037,4.56979945 5.7041453,4.57614827 5.73906379,4.61265396 Z M13.1846371,0.430371767 C13.6163566,0.00182672337 14.3131391,0.00182672337 14.7432713,0.431958971 C15.1734036,0.863678423 15.1734036,1.56204812 14.7416841,1.99218037 L14.7416841,1.99218037 L11.7545664,4.97294923 C11.7498048,5.01421653 11.7450432,5.041199 11.7418688,5.0824663 C12.4069072,6.2316019 12.4037328,7.56167874 11.4276024,8.58701244 C11.3990328,8.61716931 11.346655,8.61875651 11.3164982,8.58859964 L11.3164982,8.58859964 L6.58028183,3.8523833 C6.55012496,3.82222643 6.55171217,3.7698487 6.58186904,3.74127903 C7.60561553,2.76356145 8.93727958,2.76038704 10.0864152,3.42701267 L10.0864152,3.42701267 L10.194345,3.41431504 Z"
        transform="translate(1 .156738)"
        fill="#818181"
        fill-rule="nonzero"/>
</svg>
